<svg xmlns="http://www.w3.org/2000/svg" xmlns:xlink="http://www.w3.org/1999/xlink" version="1.1" x="0px" y="0px" viewBox="0 0 60 75" style="enable-background:new 0 0 60 60;" xml:space="preserve"><path fill="#023bbf" d="M13.77,53.67h32.46c4.29,0,7.77-3.48,7.77-7.77c0-0.55-0.45-1-1-1h-1.96V21.62c0-1.83-1.23-3.37-2.91-3.85v2.17  c0.55,0.36,0.91,0.98,0.91,1.68V44.9H36.43c-0.37,0-0.71,0.21-0.88,0.53l-0.91,1.71h-9.28l-0.91-1.71  c-0.17-0.32-0.51-0.53-0.88-0.53H10.96V21.62c0-0.7,0.37-1.33,0.92-1.68v-2.17c-1.69,0.47-2.92,2.02-2.92,3.85V44.9H7  c-0.55,0-1,0.45-1,1C6,50.19,9.49,53.67,13.77,53.67z"/><path fill="#023bbf" d="M14.88,41.5h30.25c0.55,0,1-0.45,1-1V16.33H13.88V40.5C13.88,41.05,14.33,41.5,14.88,41.5z M25.73,33.8  c0.39,0.39,0.39,1.02,0,1.41c-0.19,0.2-0.45,0.29-0.71,0.29s-0.51-0.1-0.71-0.29l-3.29-3.3c-0.39-0.39-0.39-1.02,0-1.41l3.29-3.3  c0.39-0.39,1.02-0.39,1.41,0c0.39,0.39,0.39,1.02,0,1.41l-2.59,2.59L25.73,33.8z M26.38,25.1h-7.61c-0.55,0-1-0.45-1-1s0.45-1,1-1  h7.61c0.55,0,1,0.45,1,1S26.93,25.1,26.38,25.1z M32.07,27.44l-2.2,8.06c-0.12,0.45-0.52,0.74-0.96,0.74  c-0.09,0-0.18-0.01-0.26-0.03c-0.53-0.15-0.85-0.7-0.7-1.23l2.2-8.06c0.15-0.53,0.7-0.85,1.23-0.7  C31.9,26.36,32.21,26.91,32.07,27.44z M35.69,27.21l3.29,3.3c0.39,0.39,0.39,1.02,0,1.41l-3.29,3.3c-0.2,0.2-0.45,0.29-0.71,0.29  c-0.26,0-0.51-0.1-0.71-0.29c-0.39-0.39-0.39-1.02,0-1.41l2.59-2.59l-2.59-2.59c-0.39-0.39-0.39-1.02,0-1.41  C34.67,26.82,35.3,26.81,35.69,27.21z M18.69,18.62H33.9c0.55,0,1,0.45,1,1s-0.45,1-1,1H18.69c-0.55,0-1-0.45-1-1  S18.13,18.62,18.69,18.62z"/><path fill="#023bbf" d="M46.13,7.33c0-0.55-0.45-1-1-1H14.88c-0.55,0-1,0.45-1,1v7h32.25V7.33z M19.39,11.53c-0.18,0.19-0.44,0.3-0.7,0.3  c-0.27,0-0.53-0.11-0.71-0.3c-0.19-0.18-0.29-0.44-0.29-0.7c0-0.27,0.1-0.53,0.29-0.71c0.37-0.37,1.04-0.37,1.41,0  c0.19,0.19,0.3,0.44,0.3,0.71C19.69,11.09,19.58,11.35,19.39,11.53z M22.46,11.53c-0.18,0.19-0.44,0.3-0.71,0.3  c-0.26,0-0.52-0.11-0.7-0.3c-0.19-0.18-0.29-0.44-0.29-0.7c0-0.27,0.1-0.52,0.29-0.71c0.37-0.37,1.04-0.37,1.41,0  c0.19,0.19,0.3,0.45,0.3,0.71S22.65,11.35,22.46,11.53z M25.53,11.53c-0.19,0.19-0.44,0.3-0.7,0.3c-0.27,0-0.52-0.11-0.71-0.3  c-0.19-0.18-0.3-0.44-0.3-0.7c0-0.27,0.11-0.53,0.3-0.71c0.37-0.37,1.03-0.37,1.41,0c0.19,0.18,0.3,0.44,0.3,0.71  C25.83,11.09,25.72,11.35,25.53,11.53z"/></svg>
