<svg xmlns="http://www.w3.org/2000/svg" viewBox="0 0 512 640" x="0px" y="0px"><title>tools-tool-box-work-Craft</title><g><path fill="#023bbf" d="M504.941,21.856l-63.232-9.885a8,8,0,0,0-9.14,6.669L390.458,288H363.41l9.495-72.081a8,8,0,0,0-6.684-8.947l3.226-20.434,15.62-11.359a8,8,0,0,0,3.2-5.222L404.483,67.229a8,8,0,0,0-6.654-9.15L334.612,48.1a8,8,0,0,0-9.15,6.654L309.243,157.479a8,8,0,0,0,1.432,5.954l11.36,15.62-3.227,20.432h0a8,8,0,0,0-9.115,6.453L294.57,288H281.554L279.7,215.8a8,8,0,0,0-8-7.795V187.313l13.657-13.656A8,8,0,0,0,287.705,168V64.226a8.261,8.261,0,0,0-2.346-5.891,8.008,8.008,0,0,0-9.232-1.49l-64,32A8,8,0,0,0,207.705,96v72a8,8,0,0,0,2.344,5.657l13.656,13.656V208a8,8,0,0,0-8,7.795L213.856,288H195.424c-7.533-28.511-12.969-52.129-17.019-73.908L155.006,88.25l7.865-1.463a7.932,7.932,0,0,0,1.671-.505L232.4,57.389a8,8,0,0,0,4.732-8.824l-5.85-31.46a8,8,0,0,0-7.586-6.532L149.987,8.005a8.107,8.107,0,0,0-1.741.13L14.538,33a8,8,0,0,0-6.4,9.328l11.7,62.922a7.993,7.993,0,0,0,9.328,6.4l62.921-11.7,23.4,125.842c3.478,18.708,6.439,38.67,9.22,62.209H108.9L87.307,171.391a24,24,0,0,0-47.2,8.741L60.085,288H24a8,8,0,0,0-8,8v32a8,8,0,0,0,8,8h8V464a32,32,0,0,0,32,32h48a8,8,0,0,0,0-16H64a16,16,0,0,1-16-16V336H88v40a8,8,0,0,0,8,8h24v8a8,8,0,0,0,16,0v-8h24a8,8,0,0,0,8-8V336h24v80a8,8,0,0,0,16,0V336h96v72a8,8,0,0,0,16,0V336h24v40a8,8,0,0,0,8,8h24v8a8,8,0,0,0,16,0v-8h24a8,8,0,0,0,8-8V336h40v72a8,8,0,0,0,16,0V336h8a8,8,0,0,0,8-8V296a8,8,0,0,0-8-8H471.43L511.609,31A8,8,0,0,0,504.941,21.856Zm-61.506,30.87,7.9,1.236a8,8,0,0,1,6.668,9.14h0a8,8,0,0,1-9.14,6.669l-7.9-1.236Zm-6.179,39.52,7.9,1.236a8,8,0,0,1,6.668,9.14h0a8,8,0,0,1-9.14,6.669l-7.9-1.236Zm-6.178,39.52,7.9,1.235a8,8,0,1,1-2.471,15.809l-7.9-1.236Zm-6.179,39.52,7.9,1.236a8,8,0,0,1,6.668,9.14h0a8,8,0,0,1-9.14,6.669l-7.9-1.236Zm-6.178,39.52,7.9,1.236a8,8,0,1,1-2.471,15.808l-7.9-1.235Zm-6.179,39.52,7.9,1.236a8,8,0,0,1,6.668,9.14h0a8,8,0,0,1-9.14,6.669l-7.9-1.236ZM338.771,73.053l1.248-7.9,47.413,7.487-1.25,7.915a8.007,8.007,0,0,1-9.148,6.641L345.426,82.2a8,8,0,0,1-6.655-9.148Zm-3.526,22.332a23.988,23.988,0,0,0,7.686,2.621L374.539,103a24.109,24.109,0,0,0,3.757.3,23.762,23.762,0,0,0,4.359-.406l-9.679,61.3-15.62,11.36a8,8,0,0,0-3.2,5.222l-3.743,23.706-15.8-2.5,3.742-23.706a8,8,0,0,0-1.432-5.953l-11.36-15.62Zm-11.23,121.121,32.008,5.054-2.09,15.868-32.818-5.182ZM223.705,100.944l48-24V99.056l-48,24Zm0,40,48-24v47.743l-13.657,13.656A8,8,0,0,0,255.705,184v24h-16V184a8,8,0,0,0-2.343-5.657l-13.657-13.656ZM264.318,240H231.092l.41-16h32.406ZM107.815,97.024l31.46-5.849,23.4,125.843c3.927,21.12,9.125,43.894,16.208,70.982h-38.07c-2.887-24.715-5.962-45.576-9.6-65.134ZM77.4,205.77,80.315,221.5l-15.733,2.914-2.913-15.733ZM58.755,192.951l-2.913-15.733a8,8,0,1,1,15.732-2.913l2.914,15.733ZM152,368H136v-8a8,8,0,0,0-16,0v8H104V336h48Zm256,0H392v-8a8,8,0,0,0-16,0v8H360V336h48Zm72-64v16H32V304Z"/><path fill="#023bbf" d="M464,432H384a7.994,7.994,0,0,0-3.578.845L366.111,440H353.889l-14.311-7.155A7.994,7.994,0,0,0,336,432H312a8,8,0,0,0-8,8H152a8,8,0,0,0-5.657,2.343l-16,16a8,8,0,0,0,0,11.314l16,16A8,8,0,0,0,152,488H304a8,8,0,0,0,8,8h24a7.994,7.994,0,0,0,3.578-.845L353.889,488h12.222l14.311,7.155A7.994,7.994,0,0,0,384,496h80a32,32,0,0,0,0-64ZM304,472H155.314l-8-8,8-8H304Zm160,8h-8V448h8a16,16,0,0,1,0,32Z"/></g></svg>
